<svg width="43" height="43" viewBox="0 0 43 43" fill="none" xmlns="http://www.w3.org/2000/svg">
<path d="M32.505 7.81812C32.2267 7.81812 31.9617 7.94417 31.739 8.16663L31.206 8.67604L34.3371 11.8037L34.8478 11.2713C35.2932 10.8264 35.2932 10.1635 34.8478 9.71861L33.2934 8.16588C33.0707 7.94343 32.7834 7.81812 32.505 7.81812ZM30.6953 9.1165L29.8832 9.78905L33.2236 13.1258L33.9659 12.3843L30.6953 9.1165ZM29.4422 10.3215L22.7391 16.9491C22.7052 16.9771 22.6739 17.0081 22.6456 17.0418L22.5996 17.0647C22.5186 17.1574 22.4627 17.2692 22.437 17.3895L21.5321 20.5639C21.4933 20.6896 21.4896 20.8234 21.5213 20.951C21.553 21.0786 21.6189 21.1952 21.712 21.2882C21.8051 21.3812 21.9217 21.447 22.0495 21.4787C22.1773 21.5103 22.3112 21.5066 22.437 21.4678L25.6149 20.5639C25.7204 20.5389 25.8189 20.4906 25.9032 20.4224C25.9875 20.3543 26.0554 20.2681 26.1018 20.1702L32.6906 13.6583L31.4376 12.3139V12.3836L30.5557 11.5027H30.6255L29.4422 10.3215ZM23.7368 18.1073L24.7575 18.1763L24.8273 19.2885L23.8066 19.5896L23.4124 19.1966L23.7368 18.1073Z" fill="url(#paint0_linear_253_37)"/>
<path d="M13.6818 39.0909H5.86364C5.34526 39.0909 4.84811 38.885 4.48156 38.5184C4.11502 38.1519 3.90909 37.6547 3.90909 37.1364V29.3182C3.90909 28.7998 3.70317 28.3027 3.33662 27.9361C2.97007 27.5696 2.47292 27.3636 1.95455 27.3636C1.43617 27.3636 0.939021 27.5696 0.572473 27.9361C0.205925 28.3027 0 28.7998 0 29.3182V37.1364C0 38.6915 0.617774 40.1829 1.71742 41.2826C2.81706 42.3822 4.3085 43 5.86364 43H13.6818C14.2002 43 14.6973 42.7941 15.0639 42.4275C15.4304 42.061 15.6364 41.5638 15.6364 41.0455C15.6364 40.5271 15.4304 40.0299 15.0639 39.6634C14.6973 39.2968 14.2002 39.0909 13.6818 39.0909ZM41.0455 27.3636C40.5271 27.3636 40.0299 27.5696 39.6634 27.9361C39.2968 28.3027 39.0909 28.7998 39.0909 29.3182V37.1364C39.0909 37.6547 38.885 38.1519 38.5184 38.5184C38.1519 38.885 37.6547 39.0909 37.1364 39.0909H29.3182C28.7998 39.0909 28.3027 39.2968 27.9361 39.6634C27.5696 40.0299 27.3636 40.5271 27.3636 41.0455C27.3636 41.5638 27.5696 42.061 27.9361 42.4275C28.3027 42.7941 28.7998 43 29.3182 43H37.1364C38.6915 43 40.1829 42.3822 41.2826 41.2826C42.3822 40.1829 43 38.6915 43 37.1364V29.3182C43 28.7998 42.7941 28.3027 42.4275 27.9361C42.061 27.5696 41.5638 27.3636 41.0455 27.3636ZM37.1364 0H29.3182C28.7998 0 28.3027 0.205925 27.9361 0.572473C27.5696 0.939021 27.3636 1.43617 27.3636 1.95455C27.3636 2.47292 27.5696 2.97007 27.9361 3.33662C28.3027 3.70317 28.7998 3.90909 29.3182 3.90909H37.1364C37.6547 3.90909 38.1519 4.11502 38.5184 4.48156C38.885 4.84811 39.0909 5.34526 39.0909 5.86364V13.6818C39.0909 14.2002 39.2968 14.6973 39.6634 15.0639C40.0299 15.4304 40.5271 15.6364 41.0455 15.6364C41.5638 15.6364 42.061 15.4304 42.4275 15.0639C42.7941 14.6973 43 14.2002 43 13.6818V5.86364C43 4.3085 42.3822 2.81706 41.2826 1.71742C40.1829 0.617774 38.6915 0 37.1364 0ZM1.95455 15.6364C2.47292 15.6364 2.97007 15.4304 3.33662 15.0639C3.70317 14.6973 3.90909 14.2002 3.90909 13.6818V5.86364C3.90909 5.34526 4.11502 4.84811 4.48156 4.48156C4.84811 4.11502 5.34526 3.90909 5.86364 3.90909H13.6818C14.2002 3.90909 14.6973 3.70317 15.0639 3.33662C15.4304 2.97007 15.6364 2.47292 15.6364 1.95455C15.6364 1.43617 15.4304 0.939021 15.0639 0.572473C14.6973 0.205925 14.2002 0 13.6818 0H5.86364C4.3085 0 2.81706 0.617774 1.71742 1.71742C0.617774 2.81706 0 4.3085 0 5.86364V13.6818C0 14.2002 0.205925 14.6973 0.572473 15.0639C0.939021 15.4304 1.43617 15.6364 1.95455 15.6364ZM17.5909 7.81818H9.77273C9.25435 7.81818 8.7572 8.02411 8.39066 8.39066C8.02411 8.7572 7.81818 9.25435 7.81818 9.77273V17.5909C7.81818 18.1093 8.02411 18.6064 8.39066 18.973C8.7572 19.3395 9.25435 19.5455 9.77273 19.5455H17.5909C18.1093 19.5455 18.6064 19.3395 18.973 18.973C19.3395 18.6064 19.5455 18.1093 19.5455 17.5909V9.77273C19.5455 9.25435 19.3395 8.7572 18.973 8.39066C18.6064 8.02411 18.1093 7.81818 17.5909 7.81818ZM15.6364 15.6364H11.7273V11.7273H15.6364V15.6364ZM17.5909 23.4545H9.77273C9.25435 23.4545 8.7572 23.6605 8.39066 24.027C8.02411 24.3936 7.81818 24.8907 7.81818 25.4091V33.2273C7.81818 33.7457 8.02411 34.2428 8.39066 34.6093C8.7572 34.9759 9.25435 35.1818 9.77273 35.1818H17.5909C18.1093 35.1818 18.6064 34.9759 18.973 34.6093C19.3395 34.2428 19.5455 33.7457 19.5455 33.2273V25.4091C19.5455 24.8907 19.3395 24.3936 18.973 24.027C18.6064 23.6605 18.1093 23.4545 17.5909 23.4545ZM15.6364 31.2727H11.7273V27.3636H15.6364V31.2727ZM25.4091 29.3182C25.9275 29.3182 26.4246 29.1123 26.7912 28.7457C27.1577 28.3792 27.3636 27.882 27.3636 27.3636C27.882 27.3636 28.3792 27.1577 28.7457 26.7912C29.1123 26.4246 29.3182 25.9275 29.3182 25.4091C29.3182 24.8907 29.1123 24.3936 28.7457 24.027C28.3792 23.6605 27.882 23.4545 27.3636 23.4545H25.4091C24.8907 23.4545 24.3936 23.6605 24.027 24.027C23.6605 24.3936 23.4545 24.8907 23.4545 25.4091V27.3636C23.4545 27.882 23.6605 28.3792 24.027 28.7457C24.3936 29.1123 24.8907 29.3182 25.4091 29.3182ZM33.2273 23.4545C32.7089 23.4545 32.2117 23.6605 31.8452 24.027C31.4787 24.3936 31.2727 24.8907 31.2727 25.4091V31.2727C30.7544 31.2727 30.2572 31.4787 29.8907 31.8452C29.5241 32.2117 29.3182 32.7089 29.3182 33.2273C29.3182 33.7457 29.5241 34.2428 29.8907 34.6093C30.2572 34.9759 30.7544 35.1818 31.2727 35.1818H33.2273C33.7457 35.1818 34.2428 34.9759 34.6093 34.6093C34.9759 34.2428 35.1818 33.7457 35.1818 33.2273V25.4091C35.1818 24.8907 34.9759 24.3936 34.6093 24.027C34.2428 23.6605 33.7457 23.4545 33.2273 23.4545ZM25.4091 31.2727C25.0225 31.2727 24.6446 31.3874 24.3232 31.6021C24.0018 31.8169 23.7513 32.1222 23.6033 32.4793C23.4554 32.8364 23.4167 33.2294 23.4921 33.6086C23.5675 33.9877 23.7537 34.336 24.027 34.6093C24.3004 34.8827 24.6486 35.0688 25.0278 35.1443C25.4069 35.2197 25.7999 35.181 26.1571 35.033C26.5142 34.8851 26.8195 34.6346 27.0342 34.3132C27.249 33.9917 27.3636 33.6138 27.3636 33.2273C27.3636 32.7089 27.1577 32.2117 26.7912 31.8452C26.4246 31.4787 25.9275 31.2727 25.4091 31.2727Z" fill="url(#paint1_linear_253_37)"/>
<defs>
<linearGradient id="paint0_linear_253_37" x1="37.8864" y1="6.5454" x2="24.4824" y2="4.81047" gradientUnits="userSpaceOnUse">
<stop stop-color="#417DFD"/>
<stop offset="0.46875" stop-color="#1C4CCF"/>
<stop offset="1" stop-color="#280178"/>
</linearGradient>
<linearGradient id="paint1_linear_253_37" x1="51.5" y1="-3.99997" x2="9.37311" y2="-9.4526" gradientUnits="userSpaceOnUse">
<stop stop-color="#417DFD"/>
<stop offset="0.46875" stop-color="#1C4CCF"/>
<stop offset="1" stop-color="#280178"/>
</linearGradient>
</defs>
</svg>
