<svg width="474" height="75" viewBox="0 0 474 75" fill="none" xmlns="http://www.w3.org/2000/svg">
<path d="M35.5288 22.5457C35.2245 22.5457 34.9348 22.6834 34.6914 22.9266L34.1089 23.4834L37.5312 26.902L38.0894 26.3201C38.5763 25.8338 38.5763 25.1092 38.0894 24.6229L36.3904 22.9258C36.147 22.6826 35.833 22.5457 35.5288 22.5457ZM33.5506 23.9648L32.663 24.6999L36.3142 28.3471L37.1255 27.5366L33.5506 23.9648ZM32.1811 25.2819L24.8544 32.526C24.8173 32.5566 24.7831 32.5905 24.7522 32.6273L24.7019 32.6524C24.6134 32.7537 24.5522 32.8759 24.5242 33.0074L23.5351 36.4771C23.4927 36.6145 23.4886 36.7607 23.5233 36.9002C23.5579 37.0397 23.63 37.1671 23.7317 37.2687C23.8334 37.3704 23.961 37.4424 24.1006 37.477C24.2403 37.5116 24.3867 37.5075 24.5242 37.4651L27.9976 36.4771C28.113 36.4498 28.2207 36.3969 28.3128 36.3225C28.4049 36.248 28.4791 36.1537 28.5299 36.0468L35.7316 28.9291L34.362 27.4596V27.5358L33.3981 26.573H33.4744L32.1811 25.2819ZM25.9449 33.792L27.0605 33.8674L27.1368 35.0831L26.0212 35.4122L25.5903 34.9826L25.9449 33.792Z" fill="url(#paint0_linear_253_20)"/>
<path d="M14.9545 56.7273H6.40909C5.84249 56.7273 5.2991 56.5022 4.89845 56.1016C4.49781 55.7009 4.27273 55.1575 4.27273 54.5909V46.0455C4.27273 45.4789 4.04765 44.9355 3.647 44.5348C3.24636 44.1342 2.70296 43.9091 2.13636 43.9091C1.56976 43.9091 1.02637 44.1342 0.625726 44.5348C0.22508 44.9355 0 45.4789 0 46.0455V54.5909C0 56.2907 0.675242 57.9209 1.87718 59.1228C3.07912 60.3248 4.70929 61 6.40909 61H14.9545C15.5211 61 16.0645 60.7749 16.4652 60.3743C16.8658 59.9736 17.0909 59.4302 17.0909 58.8636C17.0909 58.297 16.8658 57.7536 16.4652 57.353C16.0645 56.9524 15.5211 56.7273 14.9545 56.7273ZM44.8636 43.9091C44.297 43.9091 43.7536 44.1342 43.353 44.5348C42.9524 44.9355 42.7273 45.4789 42.7273 46.0455V54.5909C42.7273 55.1575 42.5022 55.7009 42.1016 56.1016C41.7009 56.5022 41.1575 56.7273 40.5909 56.7273H32.0455C31.4789 56.7273 30.9355 56.9524 30.5348 57.353C30.1342 57.7536 29.9091 58.297 29.9091 58.8636C29.9091 59.4302 30.1342 59.9736 30.5348 60.3743C30.9355 60.7749 31.4789 61 32.0455 61H40.5909C42.2907 61 43.9209 60.3248 45.1228 59.1228C46.3248 57.9209 47 56.2907 47 54.5909V46.0455C47 45.4789 46.7749 44.9355 46.3743 44.5348C45.9736 44.1342 45.4302 43.9091 44.8636 43.9091ZM40.5909 14H32.0455C31.4789 14 30.9355 14.2251 30.5348 14.6257C30.1342 15.0264 29.9091 15.5698 29.9091 16.1364C29.9091 16.703 30.1342 17.2464 30.5348 17.647C30.9355 18.0476 31.4789 18.2727 32.0455 18.2727H40.5909C41.1575 18.2727 41.7009 18.4978 42.1016 18.8985C42.5022 19.2991 42.7273 19.8425 42.7273 20.4091V28.9545C42.7273 29.5211 42.9524 30.0645 43.353 30.4652C43.7536 30.8658 44.297 31.0909 44.8636 31.0909C45.4302 31.0909 45.9736 30.8658 46.3743 30.4652C46.7749 30.0645 47 29.5211 47 28.9545V20.4091C47 18.7093 46.3248 17.0791 45.1228 15.8772C43.9209 14.6752 42.2907 14 40.5909 14ZM2.13636 31.0909C2.70296 31.0909 3.24636 30.8658 3.647 30.4652C4.04765 30.0645 4.27273 29.5211 4.27273 28.9545V20.4091C4.27273 19.8425 4.49781 19.2991 4.89845 18.8985C5.2991 18.4978 5.84249 18.2727 6.40909 18.2727H14.9545C15.5211 18.2727 16.0645 18.0476 16.4652 17.647C16.8658 17.2464 17.0909 16.703 17.0909 16.1364C17.0909 15.5698 16.8658 15.0264 16.4652 14.6257C16.0645 14.2251 15.5211 14 14.9545 14H6.40909C4.70929 14 3.07912 14.6752 1.87718 15.8772C0.675242 17.0791 0 18.7093 0 20.4091V28.9545C0 29.5211 0.22508 30.0645 0.625726 30.4652C1.02637 30.8658 1.56976 31.0909 2.13636 31.0909ZM19.2273 22.5455H10.6818C10.1152 22.5455 9.57183 22.7705 9.17118 23.1712C8.77054 23.5718 8.54545 24.1152 8.54545 24.6818V33.2273C8.54545 33.7939 8.77054 34.3373 9.17118 34.7379C9.57183 35.1386 10.1152 35.3636 10.6818 35.3636H19.2273C19.7939 35.3636 20.3373 35.1386 20.7379 34.7379C21.1386 34.3373 21.3636 33.7939 21.3636 33.2273V24.6818C21.3636 24.1152 21.1386 23.5718 20.7379 23.1712C20.3373 22.7705 19.7939 22.5455 19.2273 22.5455ZM17.0909 31.0909H12.8182V26.8182H17.0909V31.0909ZM19.2273 39.6364H10.6818C10.1152 39.6364 9.57183 39.8614 9.17118 40.2621C8.77054 40.6627 8.54545 41.2061 8.54545 41.7727V50.3182C8.54545 50.8848 8.77054 51.4282 9.17118 51.8288C9.57183 52.2295 10.1152 52.4545 10.6818 52.4545H19.2273C19.7939 52.4545 20.3373 52.2295 20.7379 51.8288C21.1386 51.4282 21.3636 50.8848 21.3636 50.3182V41.7727C21.3636 41.2061 21.1386 40.6627 20.7379 40.2621C20.3373 39.8614 19.7939 39.6364 19.2273 39.6364ZM17.0909 48.1818H12.8182V43.9091H17.0909V48.1818ZM27.7727 46.0455C28.3393 46.0455 28.8827 45.8204 29.2834 45.4197C29.684 45.0191 29.9091 44.4757 29.9091 43.9091C30.4757 43.9091 31.0191 43.684 31.4197 43.2834C31.8204 42.8827 32.0455 42.3393 32.0455 41.7727C32.0455 41.2061 31.8204 40.6627 31.4197 40.2621C31.0191 39.8614 30.4757 39.6364 29.9091 39.6364H27.7727C27.2061 39.6364 26.6627 39.8614 26.2621 40.2621C25.8614 40.6627 25.6364 41.2061 25.6364 41.7727V43.9091C25.6364 44.4757 25.8614 45.0191 26.2621 45.4197C26.6627 45.8204 27.2061 46.0455 27.7727 46.0455ZM36.3182 39.6364C35.7516 39.6364 35.2082 39.8614 34.8075 40.2621C34.4069 40.6627 34.1818 41.2061 34.1818 41.7727V48.1818C33.6152 48.1818 33.0718 48.4069 32.6712 48.8075C32.2705 49.2082 32.0455 49.7516 32.0455 50.3182C32.0455 50.8848 32.2705 51.4282 32.6712 51.8288C33.0718 52.2295 33.6152 52.4545 34.1818 52.4545H36.3182C36.8848 52.4545 37.4282 52.2295 37.8288 51.8288C38.2295 51.4282 38.4545 50.8848 38.4545 50.3182V41.7727C38.4545 41.2061 38.2295 40.6627 37.8288 40.2621C37.4282 39.8614 36.8848 39.6364 36.3182 39.6364ZM27.7727 48.1818C27.3502 48.1818 26.9372 48.3071 26.5858 48.5419C26.2345 48.7766 25.9607 49.1103 25.799 49.5006C25.6373 49.891 25.595 50.3206 25.6774 50.735C25.7598 51.1494 25.9633 51.53 26.2621 51.8288C26.5609 52.1276 26.9415 52.3311 27.3559 52.4135C27.7704 52.4959 28.1999 52.4536 28.5903 52.2919C28.9806 52.1302 29.3143 51.8564 29.5491 51.5051C29.7838 51.1538 29.9091 50.7407 29.9091 50.3182C29.9091 49.7516 29.684 49.2082 29.2834 48.8075C28.8827 48.4069 28.3393 48.1818 27.7727 48.1818Z" fill="url(#paint1_linear_253_20)"/>
<path d="M81.4512 43.6885H89.365L93.3434 48.8067L97.2573 53.3657L104.634 62.6128H95.9455L90.8704 56.3764L88.2683 52.6775L81.4512 43.6885ZM105.3 36.9789C105.3 41.7817 104.39 45.8676 102.569 49.2368C100.763 52.6059 98.2968 55.1793 95.1714 56.957C92.0603 58.7204 88.5622 59.6021 84.6769 59.6021C80.763 59.6021 77.2506 58.7133 74.1395 56.9355C71.0285 55.1578 68.5697 52.5844 66.7633 49.2152C64.9569 45.8461 64.0537 41.7674 64.0537 36.9789C64.0537 32.1762 64.9569 28.0902 66.7633 24.7211C68.5697 21.352 71.0285 18.7857 74.1395 17.0223C77.2506 15.2446 80.763 14.3557 84.6769 14.3557C88.5622 14.3557 92.0603 15.2446 95.1714 17.0223C98.2968 18.7857 100.763 21.352 102.569 24.7211C104.39 28.0902 105.3 32.1762 105.3 36.9789ZM95.8595 36.9789C95.8595 33.8679 95.3936 31.2443 94.4617 29.1081C93.5442 26.972 92.2467 25.3519 90.5693 24.248C88.8919 23.1441 86.9278 22.5921 84.6769 22.5921C82.4261 22.5921 80.462 23.1441 78.7846 24.248C77.1072 25.3519 75.8026 26.972 74.8707 29.1081C73.9531 31.2443 73.4944 33.8679 73.4944 36.9789C73.4944 40.09 73.9531 42.7136 74.8707 44.8497C75.8026 46.9859 77.1072 48.6059 78.7846 49.7099C80.462 50.8138 82.4261 51.3657 84.6769 51.3657C86.9278 51.3657 88.8919 50.8138 90.5693 49.7099C92.2467 48.6059 93.5442 46.9859 94.4617 44.8497C95.3936 42.7136 95.8595 40.09 95.8595 36.9789ZM112.026 59V25.9684H120.907V31.7317H121.251C121.854 29.6816 122.864 28.1332 124.284 27.0867C125.703 26.0257 127.337 25.4953 129.187 25.4953C129.646 25.4953 130.14 25.524 130.671 25.5813C131.201 25.6387 131.667 25.7175 132.068 25.8179V33.9467C131.638 33.8177 131.043 33.703 130.284 33.6027C129.524 33.5023 128.828 33.4521 128.198 33.4521C126.85 33.4521 125.646 33.746 124.585 34.3338C123.538 34.9073 122.707 35.7101 122.09 36.7424C121.488 37.7746 121.187 38.9646 121.187 40.3122V59H112.026ZM166.181 29.1941C165.88 28.1476 165.457 27.2229 164.912 26.42C164.367 25.6028 163.7 24.9147 162.912 24.3555C162.138 23.7821 161.249 23.3448 160.245 23.0437C159.256 22.7427 158.159 22.5921 156.955 22.5921C154.704 22.5921 152.726 23.1512 151.02 24.2695C149.328 25.3878 148.009 27.015 147.063 29.1511C146.117 31.273 145.643 33.8679 145.643 36.9359C145.643 40.004 146.109 42.6132 147.041 44.7637C147.973 46.9142 149.292 48.5558 150.998 49.6884C152.704 50.8066 154.719 51.3657 157.041 51.3657C159.149 51.3657 160.948 50.993 162.439 50.2475C163.944 49.4876 165.091 48.4196 165.88 47.0432C166.682 45.6669 167.084 44.0397 167.084 42.1616L168.976 42.4412H157.622V35.4306H176.051V40.9789C176.051 44.8497 175.234 48.1758 173.6 50.9571C171.966 53.7241 169.715 55.8603 166.847 57.3656C163.98 58.8566 160.697 59.6021 156.998 59.6021C152.869 59.6021 149.242 58.6918 146.117 56.871C142.991 55.0359 140.554 52.4338 138.805 49.0647C137.07 45.6813 136.203 41.667 136.203 37.0219C136.203 33.4521 136.719 30.2694 137.751 27.4737C138.798 24.6638 140.26 22.2839 142.138 20.3341C144.016 18.3843 146.203 16.9005 148.697 15.8826C151.192 14.8647 153.894 14.3557 156.805 14.3557C159.299 14.3557 161.622 14.7213 163.772 15.4525C165.923 16.1693 167.829 17.1872 169.492 18.5062C171.17 19.8251 172.539 21.395 173.6 23.2158C174.661 25.0222 175.342 27.015 175.643 29.1941H166.181ZM197.927 59.6451C194.53 59.6451 191.605 58.957 189.153 57.5807C186.716 56.19 184.838 54.2259 183.519 51.6883C182.2 49.1364 181.541 46.1185 181.541 42.6347C181.541 39.237 182.2 36.2549 183.519 33.6887C184.838 31.1224 186.695 29.1225 189.089 27.6888C191.497 26.2551 194.322 25.5383 197.562 25.5383C199.741 25.5383 201.77 25.8895 203.648 26.592C205.54 27.2802 207.189 28.3196 208.594 29.7103C210.013 31.1009 211.117 32.85 211.906 34.9575C212.694 37.0506 213.088 39.5022 213.088 42.3122V44.8282H185.196V39.1509H204.465C204.465 37.832 204.178 36.6635 203.605 35.6456C203.031 34.6277 202.236 33.832 201.218 33.2586C200.214 32.6708 199.046 32.3769 197.712 32.3769C196.322 32.3769 195.089 32.6994 194.013 33.3446C192.953 33.9754 192.121 34.8284 191.519 35.9037C190.917 36.9646 190.609 38.1474 190.594 39.452V44.8497C190.594 46.4841 190.895 47.8963 191.497 49.0862C192.114 50.2762 192.981 51.1937 194.1 51.8389C195.218 52.484 196.544 52.8066 198.078 52.8066C199.096 52.8066 200.028 52.6632 200.874 52.3765C201.719 52.0897 202.443 51.6596 203.046 51.0862C203.648 50.5127 204.106 49.8102 204.422 48.9787L212.895 49.5378C212.465 51.5736 211.583 53.3514 210.25 54.871C208.931 56.3764 207.225 57.552 205.132 58.3979C203.053 59.2294 200.651 59.6451 197.927 59.6451ZM228.228 39.9036V59H219.067V25.9684H227.798V31.7962H228.185C228.916 29.8751 230.142 28.3554 231.862 27.2372C233.583 26.1046 235.669 25.5383 238.12 25.5383C240.414 25.5383 242.414 26.0401 244.12 27.0436C245.826 28.0472 247.152 29.4809 248.098 31.3446C249.045 33.1941 249.518 35.4019 249.518 37.9682V59H240.357V39.6025C240.371 37.5811 239.855 36.004 238.808 34.8714C237.762 33.7245 236.321 33.1511 234.486 33.1511C233.253 33.1511 232.163 33.4163 231.217 33.9467C230.285 34.4772 229.554 35.2514 229.024 36.2693C228.507 37.2728 228.242 38.4843 228.228 39.9036ZM271.792 59.6451C268.394 59.6451 265.469 58.957 263.017 57.5807C260.58 56.19 258.702 54.2259 257.383 51.6883C256.064 49.1364 255.405 46.1185 255.405 42.6347C255.405 39.237 256.064 36.2549 257.383 33.6887C258.702 31.1224 260.559 29.1225 262.953 27.6888C265.362 26.2551 268.186 25.5383 271.426 25.5383C273.605 25.5383 275.634 25.8895 277.512 26.592C279.404 27.2802 281.053 28.3196 282.458 29.7103C283.877 31.1009 284.981 32.85 285.77 34.9575C286.558 37.0506 286.952 39.5022 286.952 42.3122V44.8282H259.061V39.1509H278.329C278.329 37.832 278.042 36.6635 277.469 35.6456C276.895 34.6277 276.1 33.832 275.082 33.2586C274.078 32.6708 272.91 32.3769 271.576 32.3769C270.186 32.3769 268.953 32.6994 267.878 33.3446C266.817 33.9754 265.985 34.8284 265.383 35.9037C264.781 36.9646 264.473 38.1474 264.458 39.452V44.8497C264.458 46.4841 264.759 47.8963 265.362 49.0862C265.978 50.2762 266.845 51.1937 267.964 51.8389C269.082 52.484 270.408 52.8066 271.942 52.8066C272.96 52.8066 273.892 52.6632 274.738 52.3765C275.584 52.0897 276.308 51.6596 276.91 51.0862C277.512 50.5127 277.971 49.8102 278.286 48.9787L286.759 49.5378C286.329 51.5736 285.447 53.3514 284.114 54.871C282.795 56.3764 281.089 57.552 278.996 58.3979C276.917 59.2294 274.515 59.6451 271.792 59.6451ZM292.931 59V25.9684H301.812V31.7317H302.157C302.759 29.6816 303.769 28.1332 305.189 27.0867C306.608 26.0257 308.242 25.4953 310.092 25.4953C310.551 25.4953 311.045 25.524 311.576 25.5813C312.106 25.6387 312.572 25.7175 312.973 25.8179V33.9467C312.543 33.8177 311.948 33.703 311.189 33.6027C310.429 33.5023 309.733 33.4521 309.103 33.4521C307.755 33.4521 306.551 33.746 305.49 34.3338C304.443 34.9073 303.612 35.7101 302.995 36.7424C302.393 37.7746 302.092 38.9646 302.092 40.3122V59H292.931ZM326.183 59.6236C324.075 59.6236 322.197 59.2581 320.549 58.5269C318.9 57.7814 317.595 56.6846 316.635 55.2366C315.688 53.7743 315.215 51.9535 315.215 49.7744C315.215 47.9393 315.552 46.3981 316.226 45.1508C316.9 43.9035 317.817 42.9 318.979 42.1401C320.14 41.3803 321.459 40.8068 322.936 40.4197C324.427 40.0326 325.989 39.7602 327.624 39.6025C329.545 39.4018 331.093 39.2154 332.269 39.0434C333.444 38.857 334.297 38.5846 334.828 38.2262C335.358 37.8678 335.624 37.3373 335.624 36.6349V36.5058C335.624 35.1438 335.193 34.0901 334.333 33.3446C333.487 32.5991 332.283 32.2263 330.72 32.2263C329.072 32.2263 327.76 32.5919 326.785 33.3231C325.81 34.0399 325.165 34.9431 324.85 36.0327L316.377 35.3446C316.807 33.3374 317.653 31.6027 318.914 30.1404C320.176 28.6637 321.803 27.5311 323.796 26.7426C325.803 25.9397 328.126 25.5383 330.763 25.5383C332.599 25.5383 334.355 25.7533 336.032 26.1834C337.724 26.6135 339.222 27.2802 340.527 28.1834C341.846 29.0866 342.885 30.2479 343.645 31.6672C344.405 33.0722 344.785 34.7568 344.785 36.7209V59H336.097V54.4194H335.839C335.308 55.4517 334.599 56.3621 333.71 57.1506C332.821 57.9248 331.753 58.5341 330.505 58.9785C329.258 59.4086 327.817 59.6236 326.183 59.6236ZM328.807 53.3012C330.154 53.3012 331.344 53.036 332.376 52.5055C333.409 51.9607 334.219 51.2295 334.806 50.312C335.394 49.3945 335.688 48.355 335.688 47.1938V43.6885C335.401 43.8749 335.007 44.0469 334.505 44.2046C334.018 44.348 333.466 44.4842 332.849 44.6132C332.233 44.7279 331.616 44.8354 331 44.9358C330.384 45.0218 329.824 45.1006 329.323 45.1723C328.247 45.33 327.308 45.5809 326.505 45.925C325.703 46.2691 325.079 46.735 324.635 47.3228C324.19 47.8963 323.968 48.6131 323.968 49.4733C323.968 50.7206 324.419 51.674 325.323 52.3335C326.24 52.9786 327.402 53.3012 328.807 53.3012ZM369.462 25.9684V32.85H349.57V25.9684H369.462ZM354.086 18.0546H363.247V48.8497C363.247 49.6955 363.376 50.355 363.634 50.8281C363.892 51.2869 364.25 51.6095 364.709 51.7958C365.182 51.9822 365.727 52.0754 366.343 52.0754C366.774 52.0754 367.204 52.0396 367.634 51.9679C368.064 51.8819 368.394 51.8173 368.623 51.7743L370.064 58.5914C369.605 58.7348 368.96 58.8996 368.128 59.086C367.297 59.2867 366.286 59.4086 365.096 59.4516C362.888 59.5376 360.953 59.2437 359.29 58.5699C357.641 57.8961 356.358 56.8495 355.44 55.4302C354.523 54.0109 354.071 52.2188 354.086 50.0539V18.0546ZM389.999 59.6451C386.658 59.6451 383.77 58.9355 381.332 57.5162C378.909 56.0825 377.039 54.0897 375.72 51.5378C374.401 48.9715 373.741 45.9967 373.741 42.6132C373.741 39.2011 374.401 36.2191 375.72 33.6672C377.039 31.1009 378.909 29.1081 381.332 27.6888C383.77 26.2551 386.658 25.5383 389.999 25.5383C393.339 25.5383 396.221 26.2551 398.644 27.6888C401.081 29.1081 402.959 31.1009 404.278 33.6672C405.597 36.2191 406.257 39.2011 406.257 42.6132C406.257 45.9967 405.597 48.9715 404.278 51.5378C402.959 54.0897 401.081 56.0825 398.644 57.5162C396.221 58.9355 393.339 59.6451 389.999 59.6451ZM390.042 52.5485C391.562 52.5485 392.83 52.1184 393.848 51.2582C394.866 50.3837 395.633 49.1937 396.149 47.6884C396.68 46.183 396.945 44.4698 396.945 42.5487C396.945 40.6276 396.68 38.9144 396.149 37.409C395.633 35.9037 394.866 34.7137 393.848 33.8392C392.83 32.9647 391.562 32.5274 390.042 32.5274C388.508 32.5274 387.218 32.9647 386.171 33.8392C385.139 34.7137 384.357 35.9037 383.827 37.409C383.311 38.9144 383.053 40.6276 383.053 42.5487C383.053 44.4698 383.311 46.183 383.827 47.6884C384.357 49.1937 385.139 50.3837 386.171 51.2582C387.218 52.1184 388.508 52.5485 390.042 52.5485ZM412.213 59V25.9684H421.095V31.7317H421.439C422.041 29.6816 423.052 28.1332 424.471 27.0867C425.891 26.0257 427.525 25.4953 429.374 25.4953C429.833 25.4953 430.328 25.524 430.858 25.5813C431.389 25.6387 431.855 25.7175 432.256 25.8179V33.9467C431.826 33.8177 431.231 33.703 430.471 33.6027C429.711 33.5023 429.016 33.4521 428.385 33.4521C427.038 33.4521 425.833 33.746 424.772 34.3338C423.726 34.9073 422.894 35.7101 422.278 36.7424C421.676 37.7746 421.375 38.9646 421.375 40.3122V59H412.213Z" fill="url(#paint2_linear_253_20)"/>
<defs>
<linearGradient id="paint0_linear_253_20" x1="41.4107" y1="21.1545" x2="26.7598" y2="19.2582" gradientUnits="userSpaceOnUse">
<stop stop-color="#417DFD"/>
<stop offset="0.46875" stop-color="#1C4CCF"/>
<stop offset="1" stop-color="#280178"/>
</linearGradient>
<linearGradient id="paint1_linear_253_20" x1="56.2907" y1="9.62794" x2="10.245" y2="3.66809" gradientUnits="userSpaceOnUse">
<stop stop-color="#417DFD"/>
<stop offset="0.46875" stop-color="#1C4CCF"/>
<stop offset="1" stop-color="#280178"/>
</linearGradient>
<linearGradient id="paint2_linear_253_20" x1="431.5" y1="-9.50003" x2="68.2405" y2="57.5528" gradientUnits="userSpaceOnUse">
<stop stop-color="#8001D7"/>
<stop offset="0.411458" stop-color="#417DFD"/>
<stop offset="0.782375" stop-color="#1C4CCF"/>
<stop offset="1" stop-color="#4904D7"/>
</linearGradient>
</defs>
</svg>
